<!DOCTYPE HTML PUBLIC "-//W3C//DTD HTML 4.01 Transitional//EN">
<HTML>
 <HEAD>
   <TITLE> [Linux-uvc-devel] Trouble recording from two webcams
   </TITLE>
   <LINK REL="Index" HREF="http://lists.berlios.de/pipermail/linux-uvc-devel/2006-November/index.html" >
   <LINK REL="made" HREF="mailto:linux-uvc-devel%40lists.berlios.de?Subject=Re%3A%20%5BLinux-uvc-devel%5D%20Trouble%20recording%20from%20two%20webcams&In-Reply-To=%3C2eed5f740611142034y3654aa44ke747de32a865d528%40mail.gmail.com%3E">
   <META NAME="robots" CONTENT="index,nofollow">
   <style type="text/css">
       pre {
           white-space: pre-wrap;       /* css-2.1, curent FF, Opera, Safari */
           }
   </style>
   <META http-equiv="Content-Type" content="text/html; charset=us-ascii">
   <LINK REL="Previous"  HREF="000994.html">
   <LINK REL="Next"  HREF="001000.html">
 </HEAD>
 <BODY BGCOLOR="#ffffff">
   <H1>[Linux-uvc-devel] Trouble recording from two webcams</H1>
    <B>Vidar Normann</B> 
    <A HREF="mailto:linux-uvc-devel%40lists.berlios.de?Subject=Re%3A%20%5BLinux-uvc-devel%5D%20Trouble%20recording%20from%20two%20webcams&In-Reply-To=%3C2eed5f740611142034y3654aa44ke747de32a865d528%40mail.gmail.com%3E"
       TITLE="[Linux-uvc-devel] Trouble recording from two webcams">vidarno at gmail.com
       </A><BR>
    <I>Wed Nov 15 05:34:12 CET 2006</I>
    <P><UL>
        <LI>Previous message: <A HREF="000994.html">[Linux-uvc-devel] Trouble recording from two webcams
</A></li>
        <LI>Next message: <A HREF="001000.html">[Linux-uvc-devel] Trouble recording from two webcams
</A></li>
         <LI> <B>Messages sorted by:</B> 
              <a href="date.html#999">[ date ]</a>
              <a href="thread.html#999">[ thread ]</a>
              <a href="subject.html#999">[ subject ]</a>
              <a href="author.html#999">[ author ]</a>
         </LI>
       </UL>
    <HR>  
<!--beginarticle-->
<PRE>On 11/14/06, Laurent Pinchart &lt;<A HREF="https://lists.berlios.de/mailman/listinfo/linux-uvc-devel">laurent.pinchart at skynet.be</A>&gt; wrote:
&gt;<i>
</I>&gt;<i> &gt; &gt; &gt; &gt; The thing that I notice is the third last line, seems the
</I>&gt;<i> v4l2-driver
</I>&gt;<i> &gt; &gt; &gt; &gt; forces transfer in a 1024x576
</I>&gt;<i> &gt; &gt; &gt; &gt; resolution? Other than that, I have no idea and I don't know what
</I>&gt;<i> to
</I>&gt;<i> &gt; &gt;
</I>&gt;<i> &gt; &gt; do.
</I>&gt;<i> &gt; &gt;
</I>&gt;<i> &gt; &gt; &gt; That looks weird, indeed. The UVC driver doesn't do that, however.
</I>&gt;<i> &gt; &gt;
</I>&gt;<i> &gt; &gt; Except when asked for it :-) You're probably asking the webcam to
</I>&gt;<i> stream
</I>&gt;<i> &gt; &gt; in
</I>&gt;<i> &gt; &gt; YUV format, and first generation hardware doesn't support low
</I>&gt;<i> resolutions
</I>&gt;<i> &gt; &gt; in
</I>&gt;<i> &gt; &gt; YUV. You will have to set the format to MJPEG, or get a newer webcam
</I>&gt;<i> if
</I>&gt;<i> &gt; &gt; you
</I>&gt;<i> &gt; &gt; absolutely need YUV at low resolutions.
</I>&gt;<i> &gt;
</I>&gt;<i> &gt; I don't need YUV, I need it to work :)
</I>&gt;<i> &gt; How do I set it to stream in MJPEG-format?
</I>&gt;<i>
</I>&gt;<i> Ask the ffmpeg developers :-) Sorry, but I can't help you there, I have no
</I>&gt;<i> experience with ffmpeg.
</I>&gt;<i>
</I>&gt;<i> Best regards,
</I>&gt;<i>
</I>&gt;<i> Laurent Pinchart
</I>&gt;<i>
</I>

Hi again :)
As long as bandwidth is the only problem I should also be able to fix this
problem by
lowering the frames-per-second, right? When run in normal 24 fps-mode,ffmpeg
outputs
this line (among others):
Stream #0.0: Video: rawvideo, yuv422, 1024x576, 235929 kb/s, 25.00 fps(r)

Yet if I run the recording with only 5 fps I get this:
Stream #0.0: Video: rawvideo, yuv422, 1024x576, 47185 kb/s,  5.00 fps(r)

If I am able to use 235929 in one go I should be able to record 2 times
47185 easily, right?
I keep getting the same error as before:
ioctl(VIDIOC_STREAMON): No space left on device
Could not find video grab device

Haven't been able to find a way of setting capture method to MJPEG instead
of YUV, but
I'll keep looking although right now I'm not sure it'll help at all, seems
there is something
else causing this problem.

Regards,
Vidar Normann
-------------- next part --------------
An HTML attachment was scrubbed...
URL: &lt;<A HREF="https://lists.berlios.de/pipermail/linux-uvc-devel/attachments/20061115/5fa628e9/attachment.html">https://lists.berlios.de/pipermail/linux-uvc-devel/attachments/20061115/5fa628e9/attachment.html</A>&gt;
</PRE>

<!--endarticle-->
    <HR>
    <P><UL>
        <!--threads-->
	<LI>Previous message: <A HREF="000994.html">[Linux-uvc-devel] Trouble recording from two webcams
</A></li>
	<LI>Next message: <A HREF="001000.html">[Linux-uvc-devel] Trouble recording from two webcams
</A></li>
         <LI> <B>Messages sorted by:</B> 
              <a href="date.html#999">[ date ]</a>
              <a href="thread.html#999">[ thread ]</a>
              <a href="subject.html#999">[ subject ]</a>
              <a href="author.html#999">[ author ]</a>
         </LI>
       </UL>

<hr>
<a href="https://lists.berlios.de/mailman/listinfo/linux-uvc-devel">More information about the Linux-uvc-devel
mailing list</a><br>
</body></html>
